<?xml version="1.0" encoding="UTF-8"?>
<svg width="44px" height="62px" viewBox="0 0 44 62" version="1.1" xmlns="http://www.w3.org/2000/svg" xmlns:xlink="http://www.w3.org/1999/xlink">
    <!-- Generator: Sketch 42 (36781) - http://www.bohemiancoding.com/sketch -->
    <title>Booking Details</title>
    <desc>Created with Sketch.</desc>
    <defs></defs>
    <g id="Page-1" stroke="none" stroke-width="1" fill="none" fill-rule="evenodd">
        <g id="Mobile-Portrait" transform="translate(-179.000000, -19.000000)">
            <g id="Booking-Details" transform="translate(180.000000, 20.000000)">
                <path d="M4.45057807,0 C1.99259167,0 0,1.99630738 0,4.4607332 L0,55.5392669 C0,58.0028618 1.9798342,60 4.43871536,60 L37.7835069,60 C40.2349418,60 42.2222222,58.0039724 42.2222222,55.5760109 L42.2222222,16.6666667 L42.2222222,15.5555556 L28.8888889,0 L27.7777778,0 L4.45057807,0 Z M29.8888889,1.50355825 L29.8888889,12.1211986 C29.8888889,13.4383197 30.954269,14.5060573 32.2452699,14.5060573 L41,14.5060573 L29.8888889,1.50355825 L29.8888889,1.50355825 Z" id="document-list" stroke="#F34F4F" stroke-width="1.5" fill-rule="nonzero"></path>
                <path d="M5.77777778,29.1944444 C5.77777778,29.608658 6.11117582,29.9444444 6.52968894,29.9444444 L41.0258666,29.9444444 C41.4411357,29.9444444 41.7777778,29.6115458 41.7777778,29.1944444 L41.7777778,29.1944444 C41.7777778,28.7802309 41.4443797,28.4444444 41.0258666,28.4444444 L6.52968894,28.4444444 C6.11441987,28.4444444 5.77777778,28.7773431 5.77777778,29.1944444 L5.77777778,29.1944444 Z" id="document-list-path" fill="#F34F4F"></path>
                <path d="M5.77777778,39.1944444 C5.77777778,39.608658 6.11117582,39.9444444 6.52968894,39.9444444 L41.0258666,39.9444444 C41.4411357,39.9444444 41.7777778,39.6115458 41.7777778,39.1944444 L41.7777778,39.1944444 C41.7777778,38.7802309 41.4443797,38.4444444 41.0258666,38.4444444 L6.52968894,38.4444444 C6.11441987,38.4444444 5.77777778,38.7773431 5.77777778,39.1944444 L5.77777778,39.1944444 Z" id="document-list-path" fill="#F34F4F"></path>
                <path d="M5.77777778,49.1944444 C5.77777778,49.608658 6.11117582,49.9444444 6.52968894,49.9444444 L41.0258666,49.9444444 C41.4411357,49.9444444 41.7777778,49.6115458 41.7777778,49.1944444 L41.7777778,49.1944444 C41.7777778,48.7802309 41.4443797,48.4444444 41.0258666,48.4444444 L6.52968894,48.4444444 C6.11441987,48.4444444 5.77777778,48.7773431 5.77777778,49.1944444 L5.77777778,49.1944444 Z" id="document-list-path" fill="#F34F4F"></path>
                <path d="M5.77777778,19.0833333 C5.77777778,19.4975469 6.11703788,19.8333333 6.51903306,19.8333333 L22.8143003,19.8333333 C23.2236843,19.8333333 23.5555556,19.5004347 23.5555556,19.0833333 L23.5555556,19.0833333 C23.5555556,18.6691198 23.2162955,18.3333333 22.8143003,18.3333333 L6.51903306,18.3333333 C6.10964907,18.3333333 5.77777778,18.666232 5.77777778,19.0833333 L5.77777778,19.0833333 Z" id="document-list-path" fill="#F34F4F"></path>
                <path d="M5.77777778,8.97222222 C5.77777778,9.38643578 6.11703788,9.72222222 6.51903306,9.72222222 L22.8143003,9.72222222 C23.2236843,9.72222222 23.5555556,9.38932361 23.5555556,8.97222222 L23.5555556,8.97222222 C23.5555556,8.55800866 23.2162955,8.22222222 22.8143003,8.22222222 L6.51903306,8.22222222 C6.10964907,8.22222222 5.77777778,8.55512084 5.77777778,8.97222222 L5.77777778,8.97222222 Z" id="document-list-path" fill="#F34F4F"></path>
            </g>
        </g>
    </g>
</svg>