<?xml version="1.0" encoding="utf-8"?>
<!-- Generator: Adobe Illustrator 19.2.1, SVG Export Plug-In . SVG Version: 6.00 Build 0)  -->
<svg version="1.1" id="Layer_1" xmlns="http://www.w3.org/2000/svg" xmlns:xlink="http://www.w3.org/1999/xlink" x="0px" y="0px"
	 viewBox="0 0 62 62" style="enable-background:new 0 0 62 62;" xml:space="preserve">
<style type="text/css">
	.st0{fill:#F34F4F;}
	.st1{fill:#F35454;}
</style>
<title>refundable</title>
<desc>Created with Sketch.</desc>
<g id="Page-1">
	<g id="Dashboard-Text-Links" transform="translate(-1025.000000, -192.000000)">
		<g id="Group-10" transform="translate(957.000000, 169.000000)">
			<g id="refundable" transform="translate(44.000000, 0.000000)">
				<g id="_x60_" transform="translate(44.666667, 41.666667)">
					<g id="Shape">
						<path class="st0" d="M18.8,0.3c0,0,0.3,0,0.3,0.3v1.7c0,0,0,0.3-0.3,0.3c-4.3,0-6.6,0-6.7,0c-0.3,0-0.3,0.4,0.3,1.8l0.5,2.1h6
							c0,0,0.3,0,0.3,0.3v1.7c0,0,0,0.3-0.3,0.3h-6c0,2-0.8,3.6-2.5,5.6c-2,1.1-3,1.7-3.9,1.7c0,0,0,0-0.3,0l7.5,10.6v0.3h-3.6
							c0,0-1.6-2.8-9.2-12.6H2c4.2,0,6.5-1.4,7.3-4.5c0-0.3,0-0.6,0-0.8V8.7h-9c0,0-0.3,0-0.3-0.3V6.8c0,0,0-0.3,0.3-0.3h9
							c0-1.1,0.2-2.3-0.9-3.1S4.8,2.6,3.6,2.6H0.3c0,0-0.3,0-0.3-0.3l0.8-2C0.7,0.3,6.6,0.3,18.8,0.3z"/>
					</g>
				</g>
				
					<g id="Group-6" transform="translate(54.804317, 54.387039) scale(-1, 1) rotate(70.000000) translate(-54.804317, -54.387039) translate(12.304317, 12.387039)">
					<g id="Oval-23" transform="translate(0.296296, -0.000000)">
						<g id="Oval-3">
							<path class="st1" d="M70.1,52.2c4.2-11.6,1-25.2-9-33.5c-12.8-10.7-31.9-9-42.6,3.7C7.8,35.1,9.4,54.3,22.2,65l1-1.1
								C11,53.6,9.4,35.5,19.6,23.3C29.8,11.2,48,9.6,60.1,19.8C72.3,30,73.9,48.1,63.7,60.3l1.1,1C67.2,58.5,68.9,55.4,70.1,52.2z"
								/>
						</g>
						<g id="Oval-3_1_">
							<path class="st1" d="M70.1,52.1c2.2-6.1,2.5-13,0.3-19.7C65.3,16.6,48.2,7.9,32.3,13c-7.7,2.5-13.9,7.8-17.6,15
								c-3.7,7.2-4.3,15.4-1.8,23.1l1.4-0.5c-2.4-7.3-1.8-15.1,1.7-21.9c3.5-6.8,9.4-11.9,16.7-14.3C47.9,9.6,64.1,17.8,69,32.9
								c4.9,15.1-3.4,31.3-18.5,36.2l0.5,1.4C60.2,67.6,67,60.6,70.1,52.1z"/>
						</g>
					</g>
					<g id="Shape_1_" transform="translate(12.000000, 52.259259)">
						<g>
							<path class="st1" d="M2.2,9.3c0,0-2.8,2.6,0.9,3l10.3,2c0.5,0.1,1.1-0.2,1.2-0.8c0-0.1,0-0.3,0-0.4L12.1,1.8
								C12,1.3,11.5,1,10.9,1.1c-0.2,0-0.4,0.1-0.5,0.3C7.7,4,4.9,6.6,2.2,9.3z"/>
						</g>
					</g>
				</g>
			</g>
		</g>
	</g>
</g>
</svg>
