<?xml version="1.0" encoding="utf-8"?>
<!-- Generator: Adobe Illustrator 25.0.1, SVG Export Plug-In . SVG Version: 6.00 Build 0)  -->
<svg version="1.1" id="Layer_1" xmlns="http://www.w3.org/2000/svg" xmlns:xlink="http://www.w3.org/1999/xlink" x="0px" y="0px"
	 viewBox="0 0 200 200" style="enable-background:new 0 0 200 200;" xml:space="preserve">
<style type="text/css">
	.st0{fill:none;stroke:#F35454;stroke-width:6;stroke-miterlimit:10;}
</style>
<path class="st0" d="M100.1,7.2c-3.4,0-6.8,1-10.2,3C68.6,22.3,47.4,34.6,26.1,47.1c-6.5,3.8-10,9.4-10,16.9c-0.1,25-0.1,50,0,75
	c0,7.3,3.4,12.9,9.7,16.6c21.5,12.5,43,24.9,64.5,37.2c3.3,1.9,6.5,2.8,9.8,2.8c3.2,0,6.3-0.9,9.4-2.6
	c21.7-12.4,43.3-24.9,64.9-37.5c4.8-2.8,8.7-6.9,9-12.5c0.6-11.6,0.2-23.3,0.2-35.4c-1.7,0.9-3.2,1.6-4.6,2.4
	c-24,13.8-47.9,27.6-71.8,41.5c-2.5,1.4-4.9,2.2-7.3,2.2c-1.9,0-3.9-0.5-6-1.8c-11.5-6.8-23.2-13.5-34.8-20.3
	c-3.8-2.3-5.8-5.6-5.8-10c0-13.6,0-27.2,0-40.8c0-4.3,2-7.5,5.6-9.7c11.9-6.9,23.6-14,35.7-20.5c1.6-0.9,3.8-1.4,5.8-1.4
	c1.3,0,2.5,0.2,3.5,0.6c7.1,3.2,13.8,7.5,21.5,11.9C110.7,70.5,97,78.5,83.3,86.6c-3.1,1.8-4.6,3.9-4.4,7.5c0.2,4.9,0.1,9.7,0,14.5
	c-0.1,3.3,0.9,5.6,4,7.2c4.2,2.3,8.5,4.6,12.6,7.2c1.6,1.1,3.1,1.5,4.6,1.5c1.6,0,3.1-0.5,4.9-1.5c22.9-13.4,45.6-27.2,69-39.7
	c13.8-7.4,12.8-29.5,0.1-36.6c-21.5-11.8-42.6-24.4-63.8-36.7C106.9,8.2,103.5,7.2,100.1,7.2L100.1,7.2z"/>
</svg>
