<?xml version="1.0" encoding="UTF-8"?>
<svg width="61px" height="61px" viewBox="0 0 61 61" version="1.1" xmlns="http://www.w3.org/2000/svg" xmlns:xlink="http://www.w3.org/1999/xlink">
    <!-- Generator: Sketch 42 (36781) - http://www.bohemiancoding.com/sketch -->
    <title>Ticket Voucher</title>
    <desc>Created with Sketch.</desc>
    <defs></defs>
    <g id="Page-1" stroke="none" stroke-width="1" fill="none" fill-rule="evenodd">
        <g id="Mobile-Portrait" transform="translate(-99.000000, -19.000000)">
            <g id="Ticket-Voucher" transform="translate(100.000000, 20.000000)">
                <path d="M58.045353,20.3308969 L54.5498734,16.8125553 C53.1416298,15.3957336 50.9745704,16.5517178 50.9745704,16.5517178 C48.7119199,17.4923135 46.0107331,17.0447401 44.1777498,15.2001055 C42.34181,13.3515188 41.908201,10.639402 42.8621407,8.37782267 C43.6978235,6.15675217 42.5359485,4.73597842 42.1939887,4.37732691 L38.6827415,0.840212853 C37.1473716,-0.704063481 35.4829044,0.700901936 35.0749178,1.09215813 L1.09869849,35.0069562 C-1.00824691,37.1074882 0.729145394,38.7851473 0.729145394,38.7851473 L4.79718592,42.8814811 C4.79718592,42.8814811 5.80138488,43.9692919 7.74769787,43.1808514 C10.2271528,42.0100469 13.0820737,42.3953749 14.9988224,44.3230033 C16.823922,46.1607218 17.2644293,48.8491261 16.3331555,51.1037893 C16.3351264,51.1037893 15.153542,53.3060874 16.5765678,54.7377293 L20.1380742,58.3252325 C20.3933122,58.5752017 22.2637437,60.261753 24.6022757,57.9300242 L58.3340972,24.2622313 C58.9056726,23.5992694 59.7906291,22.0885857 58.045353,20.3308969 Z" id="Shape" stroke="#F34F4F" stroke-width="1.5" fill-rule="nonzero"></path>
                <g id="Group" transform="translate(12.786885, 26.557377)" fill="#F34F4F">
                    <ellipse id="Oval" cx="1.96721311" cy="1.96721311" rx="1.96721311" ry="1.96721311"></ellipse>
                    <ellipse id="Oval" cx="5.90163934" cy="5.90163934" rx="1.96721311" ry="1.96721311"></ellipse>
                    <ellipse id="Oval" cx="9.83606557" cy="9.83606557" rx="1.96721311" ry="1.96721311"></ellipse>
                    <circle id="Oval" cx="13.7704918" cy="13.7704918" r="1.96721311"></circle>
                    <circle id="Oval" cx="17.704918" cy="17.704918" r="1.96721311"></circle>
                </g>
            </g>
        </g>
    </g>
</svg>